<?xml version="1.0" ?><!DOCTYPE svg  PUBLIC '-//W3C//DTD SVG 1.1//EN'  'http://www.w3.org/Graphics/SVG/1.1/DTD/svg11.dtd'><svg height="512px" style="enable-background:new 0 0 512 512;" version="1.1" viewBox="0 0 512 512" width="512px" xml:space="preserve" xmlns="http://www.w3.org/2000/svg" xmlns:xlink="http://www.w3.org/1999/xlink"><g id="_x32_1-tinder"><g><g><g><path d="M112.458,444.94c-52.552-53.411-46.316-141.005,16.824-237.006      c11.479-17.46,23.381-33.313,37.072-49.489l11.392-13.432l1.13,11.991c1.729,18.782,4.265,29.072,10.023,40.823      c3.609,7.387,9.543,15.314,12.145,17.615c1.965,1.768,1.041,2.784,11-2.301c65.59-35.893,72.357-94.473,68.66-144.839      c-1.285-14.771-4.533-31.248-8.563-43.36c-1.545-4.669-2.445-8.343-1.967-8.192c0.479,0.149,8.648,7.893,18.164,17.226      c90.967,89.029,140.18,182.246,146.561,277.646c1.996,109.336-60.156,167.619-150.615,180.004      C207.094,503.56,153.764,485.553,112.458,444.94L112.458,444.94z M112.458,444.94" style="fill:#FF5722;"/></g></g></g></g><g id="Layer_1"/></svg>